# xmcd
#
# Track frame offsets:
#	150
#	12180
#	20843
#	30314
#	42319
#	56737
#	66028
#	76134
#	87062
#	99317
#	111360
#	124377
#	133047
#	147402
#	157632
#
# Disc length: 2233 seconds
#
# Revision: 1
# Processed by: cddbd v1.5.2PL0 Copyright (c) Steve Scherf et al.
# Submitted via: EZCDAudioConverter 9.1.1.1
#
DISCID=bd08b70f
DTITLE=Robert Gordon and Chris Spedding - It's Now Or Never
DYEAR=2007
DGENRE=Country
TTITLE0=Mess Of Blues
TTITLE1=I Beg Of You
TTITLE2=Don't Leave Me Now
TTITLE3=I'm Left, You're Right, She's Gone
TTITLE4=Peace In The Valley
TTITLE5=Don't Be Cruel
TTITLE6=Lawdy Miss Clawdy
TTITLE7=My Baby Left Me
TTITLE8=Too Much
TTITLE9=Love Me
TTITLE10=Trying To Get To You
TTITLE11=Baby I Don't Care
TTITLE12=It's Now Or Never
TTITLE13=Feels So Right
TTITLE14=Young And Beautiful
EXTD=
EXTT0=
EXTT1=
EXTT2=
EXTT3=
EXTT4=
EXTT5=
EXTT6=
EXTT7=
EXTT8=
EXTT9=
EXTT10=
EXTT11=
EXTT12=
EXTT13=
EXTT14=
PLAYORDER=
